<svg width="16" height="16" viewBox="0 0 16 16" fill="none" xmlns="http://www.w3.org/2000/svg">
<g id="Select">
<path id="Icon" fill-rule="evenodd" clip-rule="evenodd" d="M11.6465 5.35355L12.0001 5.7071L12.7072 5L12.3536 4.64645L9.06075 1.35353C8.47496 0.767736 7.52521 0.767737 6.93942 1.35353L3.64653 4.64644L3.29298 5L4.00009 5.7071L4.35364 5.35355L7.64653 2.06063C7.84179 1.86537 8.15838 1.86537 8.35364 2.06063L11.6465 5.35355ZM4.35363 10.6464L4.00008 10.2929L3.29297 11L3.64652 11.3535L6.93942 14.6464C7.5252 15.2322 8.47495 15.2322 9.06074 14.6464L12.3536 11.3535L12.7072 11L12.0001 10.2929L11.6465 10.6464L8.35363 13.9393C8.15837 14.1346 7.84178 14.1346 7.64652 13.9393L4.35363 10.6464Z" fill="#2B2B2B"/>
</g>
</svg>
