<svg xmlns="http://www.w3.org/2000/svg" xml:space="preserve" fill-rule="evenodd" clip-rule="evenodd"
  image-rendering="optimizeQuality" shape-rendering="geometricPrecision"
  text-rendering="geometricPrecision" viewBox="2641.21 10043.39 54717.58 39913.22"><path d="m2772.62 30000-64.37-6166.53-.2.01c-6.94-125.14-13.21-249.08-19.09-372.31-17.72-45.21-27.47-94.43-27.47-145.92 0-38.81 5.55-76.32 15.86-111.81-190.84-4534.18 360.83-7757.06 1981.5-9890.04 1714.54-2256.53 4573.28-3258.68 8950.3-3258.68v1.56l16390.81-12.89 16390.81 12.89v-1.56c4377.03 0 7235.76 1002.15 8950.3 3258.68 1694.77 2230.5 2220.66 5652.7 1950.8 10520.08l-.2-.01-64.37 6166.53 64.37 6166.53.2-.01c269.86 4867.38-256.03 8289.58-1950.8 10520.08-1714.54 2256.52-4573.27 3258.68-8950.3 3258.68v-1.56l-13179.7 10.36-7.19.01-3203.92 2.52-16390.81-12.89v1.56c-4377.02 0-7235.76-1002.16-8950.3-3258.68-1619.25-2131.11-2171.38-5350.22-1982.02-9878.14-9.99-34.97-15.34-71.89-15.34-110.06 0-50.74 9.48-99.27 26.71-143.93 6.06-128.32 12.62-257.52 19.85-387.95l.2.01 64.37-6166.53zm27278.29-17337.55c529.3 0 1008.54 214.58 1355.45 561.49 346.91 346.91 561.49 826.15 561.49 1355.45 0 529.29-214.58 1008.53-561.49 1355.45-346.91 346.91-826.15 561.49-1355.45 561.49-529.29 0-1008.53-214.58-1355.45-561.49-346.91-346.92-561.49-826.16-561.49-1355.45 0-529.3 214.58-1008.54 561.49-1355.45 346.92-346.91 826.16-561.49 1355.45-561.49zm789.83 1127.11c-202.09-202.09-481.37-327.11-789.83-327.11-308.46 0-587.73 125.01-789.83 327.11-202.09 202.09-327.11 481.37-327.11 789.83 0 308.46 125.01 587.73 327.11 789.83 202.1 202.1 481.37 327.11 789.83 327.11 308.46 0 587.73-125.01 789.83-327.11 202.1-202.1 327.11-481.37 327.11-789.83 0-308.46-125.02-587.74-327.11-789.83zm8506.71 2926.53c74.21 207.1-33.52 435.17-240.62 509.38-207.1 74.21-435.17-33.52-509.38-240.62-593.53-1642.8-1384.65-3199.23-2401.08-4340.44-829.84-931.72-1808.64-1581.61-2949.59-1760.34-44.99-6.96-87.04-21.22-125.16-41.35l-3121.66-2.45-2671.19 2.1c-38.3 20.32-80.57 34.7-125.82 41.7-1806.72 283.03-3206.53 1744.94-4253.49 3642.78-1525.96 2766.1-2292.32 6433.51-2493.12 8837.69-30.6 366.45-8.78 710.53 67.27 1077.04 78.72 379.39 216.69 791.38 415.27 1280.92 140.99 347.58 342.76 719.53 551.64 1104.6 515.77 950.79 1072.1 1976.55 1049.84 3195.88 22.26 1219.33-534.07 2245.09-1049.84 3195.88-208.88 385.07-410.65 757.02-551.64 1104.6-198.58 489.54-336.55 901.53-415.27 1280.92-76.05 366.51-97.87 710.58-67.27 1077.04 200.8 2404.18 967.16 6071.59 2493.12 8837.69 1041.89 1888.65 2433.28 3345.4 4227.33 3638.4l2823.17 2.22 3174.47-2.5c1793.25-293.63 3184.11-1750.05 4225.68-3638.12 1525.96-2766.1 2292.32-6433.51 2493.12-8837.69 30.61-366.47 8.78-710.54-67.27-1077.04-78.71-379.39-216.69-791.38-415.27-1280.92-140.18-345.59-334.52-705.93-536.64-1080.71-520.77-965.61-1089.59-2020.34-1064.74-3311.02 27.21-1413.16 603.17-2322.98 1126.65-3149.91 365.83-577.89 702.51-1109.72 740.51-1713.25 31.9-506.66 202.67-1175.75 772.12-1641.82 393.55-322.11 967.14-536.48 1799.01-510.31v-1.19h14287.73c153.4-4211.46-361.58-7189.78-1828.64-9120.59-1546.84-2035.81-4204.04-2939.94-8315.92-2939.94v-1.56l-11065.21-8.7c532.68 336.9 1021.11 767.29 1467.69 1268.69 1087.56 1221.07 1927.98 2869.66 2554.2 4602.94zM25053.93 49155.84c-1128.49-736.85-2055.52-1894.7-2804.47-3252.35-1513.96-2744.35-2307.57-6324.85-2557.55-8805.09H3464.12c-151.78 4204.22 363.64 7178.23 1829.11 9106.94 1546.84 2035.8 4204.05 2939.94 8315.92 2939.94v1.56l11444.78 9zM19644.18 36298.4c4.77-282.65 37.28-563.05 98.17-856.52 90.15-434.45 241.25-889.23 455.91-1418.42 160.5-395.67 371.11-783.92 589.14-1185.86 469.66-865.8 976.4-1799.98 955.98-2806.81v-15.62c20.41-1006.82-486.32-1941.01-955.98-2806.81-218.03-401.94-428.64-790.19-589.14-1185.86-214.66-529.19-365.77-983.98-455.91-1418.42-63.21-304.66-95.83-595.23-98.59-888.85l-1.68.02H3500.97c1.34 24.86 2.58 49.53 3.96 74.47v18.75c43.5 4167.51 43.5 8215.55 0 12383.06v18.75c-1.64 29.51-3.11 58.72-4.69 88.12h16143.94zm50.69-13379.68c253.2-2479.1 1046.47-6042.49 2554.59-8776.25 764.73-1386.24 1715.09-2564.21 2876.03-3298.37l-11516.34 9.06v1.56c-4111.87 0-6769.08 904.13-8315.92 2939.94-1467.06 1930.8-1982.04 4909.13-1828.64 9120.59h16177.49c17.9 0 35.51 1.2 52.79 3.47zm36804.08 796.53H42247.6l-12.5-1.56c-617.33-21.14-1020.49 119.2-1280.25 331.82-352.47 288.48-460.05 732.42-481.5 1073.06-50.76 806.15-439.73 1420.59-862.39 2088.25-467.53 738.54-981.93 1551.12-1004.77 2737.41-20.82 1081.39 496.95 2041.46 970.98 2920.4 214.07 396.95 419.9 778.59 574.14 1158.83 214.67 529.2 365.78 983.98 455.91 1418.42 60.89 293.47 93.41 573.87 98.18 856.52h15794.28c-1.58-29.4-3.05-58.61-4.69-88.12v-18.75c-43.5-4167.51-43.5-8215.55 0-12383.06v-18.75c1.38-24.94 2.62-49.61 3.96-74.47zm36.85 13383.15H40657.66c-249.98 2480.24-1043.59 6060.74-2557.55 8805.09-748.86 1357.48-1675.75 2515.21-2804.04 3252.08l11094.7-8.73v-1.56c4111.88 0 6769.08-904.14 8315.92-2939.94 1465.46-1928.72 1980.92-4902.69 1829.11-9106.94z" class="fil0"></path></svg>