<?xml version="1.0" encoding="UTF-8"?>
<svg id="Layer_2" xmlns="http://www.w3.org/2000/svg" viewBox="0 0 4962.8766 1060.3676">
  <g id="Components">
    <g id="_28e28332-cbd7-42d3-bcc8-4d59704ce348_7">
      <path
        d="M1981.0266,176.3398l-358.53-.547h-10.8099v726.916h164.5499v-266.673h198.91c129.22,0,223-96.922,223-230.395s-91.3101-228.89-217.12-229.301ZM1935.3066,491.2008h-159.2101l-.8199-170.436h160.03c22.1799,0,94.73,6.161,94.73,85.013,0,54.347-34.5,85.423-94.73,85.423Z"
        style="fill:#f4f4f3;" />
      <path
        d="M2876.0865,773.4718c-4.3799-93.91-22.45-193.981-178.24-198.362v-12.184c107.8801-17.248,174.4099-86.791,174.4099-183.303,0-116.224-93.3599-203.837-217.1199-203.837h-374.27v726.916h167.4199v-270.096h93.3701c119.78,0,142.6399,23.957,147.3,91.584l11.77,168.929.6799,10.13h10.1299l159.6201-.547h11.3699l-.5498-11.363-5.8901-117.867ZM2704.1466,403.7168c0,52.978-30.1201,77.62-94.73,77.62h-161.1301l-.4099-160.579h161.54c62.8301,0,94.73,27.927,94.73,82.959Z"
        style="fill:#f4f4f3;" />
      <path
        d="M3431.7167,175.7858h-10.8201v364.963c0,134.569-55.4399,211.641-152.22,211.641-84.8801,0-137.45-56.949-137.45-148.806V175.7858h-166.4602v427.798c0,180.155,112.25,305.962,273.1101,305.962,96.1001,0,161.9399-45.86,182.0701-126.217h11.3599v118.414h165.0901V175.7858h-164.6799Z"
        style="fill:#f4f4f3;" />
      <path
        d="M4197.4567,175.7928h-10.8203v532.387h-14.23c-4.7896-28.8849-12.8696-45.586-20.8096-61.877l-1.3701-2.874-229.8501-461.749-3.01-6.024h-199.1799v725.958h150.3101v-498.848h13.4199c4.3799,21.219,12.8599,37.373,20.53,51.747,1.9199,3.559,3.7,7.118,5.48,10.541l209.3098,430.673,3.0103,6.024h216.98V175.7928h-139.77Z"
        style="fill:#f4f4f3;" />
      <path
        d="M4952.0568,175.7858h-491.5903v725.957h502.4102v-163.59h-340.8701v-125.26h336.8999v-157.156h-336.8999v-115.403h340.8701v-164.548h-10.8198Z"
        style="fill:#f4f4f3;" />
      <path
        d="M981.4813,451.3248l348.3953-.0217v149.6375c-410.3415,104.0543-432.0901,459.2159-432.0901,459.2159l-86.0646.211v-438.6213c-354.0628,142.8031-381.4712,438.2065-381.4712,438.2065l-85.658.4148v-458.994l-344.5927-.0668v-149.9819C405.733,344.4099,430.2163.0187,430.2163.0187l86.5812-.0012v434.9942C862.2683,312.6685,897.8257,0,897.8257,0l85.6934.0174-2.0378,451.3074Z"
        style="fill:#ff9b43;" />
    </g>
  </g>
</svg>